<svg width="30" height="30" xmlns="http://www.w3.org/2000/svg">

 <g>
  <title>background</title>
  <rect fill="none" id="canvas_background" height="32" width="32" y="-1" x="-1"/>
 </g>
 <g>
  <title>Layer 1</title>
  <path stroke="#000000" stroke-opacity="0" id="Cat" fill-rule="evenodd" fill="#ffffff" d="m20.442444,31.499981l-3.996,0l-4,0c0,0 0.011,-2.372 0,-4c-5.473,1.178 -7,-3 -7,-3c-1,-2 -2,-3 -2,-3c-2,-1.188 0,-1 0,-1c2,0 3,2 3,2c1.755,2.981 4.878,2.501 6,2c0,-1 0.438,-2.512 1,-3c-4.368,-0.492 -8.004,-3 -8.004,-8s1.004,-6 2.004,-7c-0.202,-0.493 -1.039,-2.315 0.031,-5c0,0 1.965,0 3.965,3c0.991,-0.991 4,-1 5.001,-1c0.999,0 4.008,0.009 4.999,1c2,-3 3.969,-3 3.969,-3c1.07,2.685 0.233,4.507 0.031,5c1,1 2,2 2,7s-3.632,7.508 -8,8c0.562,0.488 1,2.21 1,3l0,7z" clip-rule="evenodd"/>
 </g>
</svg>